PathFileType	4	(X/Y/Z)	RBDS022\RBDS022runT35.trc
DataRate	CameraRate	NumFrames	NumMarkers	Units	OrigDataRate	OrigDataStartFrame	OrigNumFrames
150.000000	150.000000	4	33	mm	150.000000	3937	4500
Frame#	Time	L.ASIS			L.Heel.Bottom			L.Heel.Lateral			L.Heel.Top			L.Iliac.Crest			L.MT1			L.MT5			L.PSIS			L.Shank.Bottom.Lateral			L.Shank.Bottom.Medial			L.Shank.Top.Lateral			L.Shank.Top.Medial			L.Thigh.Bottom.Lateral			L.Thigh.Bottom.Medial			L.Thigh.Top.Lateral			L.Thigh.Top.Medial			R.ASIS			R.ASY			R.Heel.Bottom			R.Heel.Lateral			R.Heel.Top			R.Iliac.Crest			R.MT1			R.MT5			R.PSIS			R.Shank.Bottom.Lateral			R.Shank.Bottom.Medial			R.Shank.Top.Lateral			R.Shank.Top.Medial			R.Thigh.Bottom.Lateral			R.Thigh.Bottom.Medial			R.Thigh.Top.Lateral			R.Thigh.Top.Medial			
		X1	Y1	Z1	X2	Y2	Z2	X3	Y3	Z3	X4	Y4	Z4	X5	Y5	Z5	X6	Y6	Z6	X7	Y7	Z7	X8	Y8	Z8	X9	Y9	Z9	X10	Y10	Z10	X11	Y11	Z11	X12	Y12	Z12	X13	Y13	Z13	X14	Y14	Z14	X15	Y15	Z15	X16	Y16	Z16	X17	Y17	Z17	X18	Y18	Z18	X19	Y19	Z19	X20	Y20	Z20	X21	Y21	Z21	X22	Y22	Z22	X23	Y23	Z23	X24	Y24	Z24	X25	Y25	Z25	X26	Y26	Z26	X27	Y27	Z27	X28	Y28	Z28	X29	Y29	Z29	X30	Y30	Z30	X31	Y31	Z31	X32	Y32	Z32	X33	Y33	Z33	

3938	26.24666666666667	2249.481941271155	983.0750482197348	901.3847051342664	2361.270644385223	19.15419724180653	978.8233245324743	2380.775920713606	46.52899272275884	929.6288892233484	2351.590853697176	64.41983953785387	975.0163834308075	2171.310088661548	1070.483295383495	850.0527270899711	2558.766020230912	119.6961540841957	998.6932198638779	2529.406270318209	82.82319524537385	892.2764941056113	2088.762282536306	1024.383243910502	968.6257575250686	2367.581878740223	188.503880598004	902.4017736829777	2330.045439633976	184.9952494690924	943.555686194298	2340.746183136932	262.6152728998778	885.0007330945325	2303.892267973928	259.9309322984391	924.6686083977834	2287.84194594985	623.5041544020796	850.3731106223909	2230.359865590446	604.5858309637619	890.8386567892189	2242.074546326483	720.8478110469944	830.3813161485891	2187.396388766607	703.0562076236699	869.221394624255	2257.804096870433	975.7362841239117	1131.441337123647	1709.786481410817	183.8131914713456	1068.632042204075	1602.20565028369	338.6028975604098	1024.958318300046	1623.291933819397	323.1000254754618	1076.165697392406	1645.699904094625	345.3769129080705	1030.03356415066	2224.41595493849	1063.621684625551	1161.91700631036	1682.62303528469	139.8991074922748	1023.247036876684	1654.17686968526	172.1208532298697	1127.830231891691	2099.256459761236	1029.099371176033	1057.534634960101	1728.182169600528	348.9454356777155	1107.317732668471	1716.95442476965	380.9114176061941	1068.896348225188	1793.966584054572	398.8398401119648	1127.278721421641	1775.670962192496	432.2783472028169	1090.01210185821	2076.173941926908	620.3033163312417	1161.105469190029	2019.231668840016	647.8816338082679	1128.471288025924	2111.880133469432	722.0070272654608	1184.96069894276	2054.239260690495	747.8039275173053	1158.33399312222	
3939	26.25333333333333	2248.43478112205	981.1661719067899	900.2950241139719	2361.991496575524	18.03051147812855	981.0760864340294	2381.401425799119	45.3142769726239	931.8994181880614	2352.554425085638	63.16302930652595	977.3999878145395	2170.582817291475	1067.541101382409	849.5420115436948	2559.364961251592	118.1323339823695	999.9401095374982	2529.497729080068	81.13665655655026	893.8304868785821	2087.804431915372	1021.584024561229	968.8875755362225	2367.568136825834	185.933186938952	904.0437434382285	2330.303256209304	182.2693469404177	945.4552353555719	2340.139298212901	259.8305736919194	886.5288306873837	2303.501253956459	257.0236048580168	926.4033020987823	2286.12952387944	621.2152866261292	850.9228259977557	2228.467614114213	602.5450602301266	891.2247257962528	2240.444834659657	718.5064513889287	830.2732507269558	2185.818522517105	701.0777134756404	869.3255799591913	2258.530178118607	973.709730883885	1130.666834650762	1704.121545625324	195.1267148758252	1068.834388094145	1601.073147443651	352.3912751455977	1023.946010970064	1621.923809940288	336.9264648091916	1075.283773887128	1644.696527998786	357.7488094458982	1028.555376520912	2222.478689674044	1061.666972777058	1161.591035783496	1675.273972592549	151.5807610260431	1024.109481809608	1648.593577901632	185.9239093632123	1128.603790154801	2099.213225232227	1025.957804054502	1057.678978693132	1728.457301054628	358.1858378449039	1106.43356128311	1718.564404874782	390.830723809817	1068.184217461809	1796.662101722926	404.7462172777166	1126.270593888764	1779.922805264714	439.1466493116708	1089.147768922141	2083.608601439102	613.833758783109	1160.488450152218	2025.704619295532	640.2295577163765	1128.534565173092	2117.359378436136	716.1545446664779	1184.019570921503	2058.536375109105	740.7888253614291	1158.564950185985	
3940	26.26	2247.233828445972	979.0038574825769	899.064584264918	2358.216876444298	17.52614534766125	983.3316389028495	2377.878823491299	44.54183790515341	934.2517705786555	2349.715775575231	62.57366933895913	979.9645409941357	2169.583388817618	1064.188760601826	849.0459778096408	2556.524342865828	114.1774520099808	1001.369213153251	2525.713731202366	77.92249553483461	895.4541097368979	2086.65084310446	1018.102281610699	969.3587237889358	2365.226250768681	183.1882917478899	905.777405433681	2328.11157165631	179.7451680661143	947.3256822708407	2337.943066423783	257.0595704243323	888.0513553797464	2301.413054472936	254.5000829866013	928.0278278970719	2284.842294597617	618.9256021289461	851.7038248538227	2226.925547687163	600.2981014374126	891.6292491491779	2239.014700101328	716.0598117592546	830.4018921274893	2184.400878695664	698.8032382677158	869.4963608180454	2259.319601706348	971.1540565146763	1129.83618969911	1700.053111815547	206.3181972224355	1069.018970507592	1601.787455557365	366.1122113694812	1023.09064958757	1622.40676527797	350.5662238136219	1074.542768012067	1645.478151494466	369.9946275810922	1027.255246419576	2220.428063195163	1058.816031223217	1161.447102737607	1669.446520433139	163.3375391111648	1024.853245209746	1644.693084866041	199.5997022324777	1129.320229043381	2099.091778164223	1021.94567185915	1057.975074083036	1730.338020247989	367.1860646777358	1105.612811579795	1721.825920757829	400.3832332874031	1067.467843537229	1800.807992113078	410.3319986414302	1125.25515476867	1785.686444805852	445.5567879084289	1088.215012512243	2091.49521391477	606.7578220397945	1159.971910313734	2032.722648320778	631.8002380498	1128.43540178357	2122.971335554212	709.7967806246869	1183.1844305942	2063.122685589042	733.0783728904956	1158.508373925017	
3941	26.26666666666667	2245.873557304905	976.5864531336085	897.7097671546916	2350.17376841552	17.52158500654742	985.4856898442547	2370.418935457887	44.12413652325591	936.5837929219998	2343.215604888521	62.5289983796035	982.5905847180379	2168.232546651293	1060.455528842546	848.6183325575188	2550.355526277286	108.0731094015294	1002.994584431301	2518.283574235076	73.37483629175389	897.1204675708514	2085.339960270866	1013.983599356227	970.0759716980087	2360.654671399727	180.2880373661476	907.5284770370781	2323.545167565862	177.4337798155738	949.0644048003869	2334.245318396358	254.3128643526031	889.4850488980294	2297.700897403839	252.3592202568837	929.4403322629611	2283.952931490987	616.5807790574864	852.5999488170523	2225.743894778753	597.8120250633795	892.007767113021	2237.776442281906	713.4644510360974	830.682913337465	2183.150124186238	696.2045120237472	869.6893827002498	2260.145227451058	968.0887596397971	1128.944360730701	1697.671829238675	217.1651390910144	1069.229227413521	1604.454524138152	379.5603904393004	1022.431883463465	1624.828653379849	363.7990110305156	1073.987066036268	1648.156877812663	381.9212261445217	1026.198339590607	2218.439664495153	1055.044109647558	1161.486685583835	1665.273918971066	174.9225468324313	1025.527297760497	1642.557739962913	212.8948430704822	1130.006678362738	2098.893202537431	1017.130108468665	1058.447598394756	1733.879514778295	375.7689651998683	1104.917601594097	1726.75967094143	409.3743217568344	1066.808578017247	1806.411667688287	415.4905451844746	1124.298641642442	1792.925058591736	451.3790950583307	1087.278508683493	2099.687452529385	599.2758164217538	1159.537544496211	2040.18479232718	622.8309270937012	1128.126891804702	2128.62000198568	703.1002807144467	1182.462603188533	2067.949563550464	724.8766250158701	1158.125924015032	
